<svg xmlns="http://www.w3.org/2000/svg" width="52.17" height="50.31" viewBox="0 0 52.17 50.31">
<g id="Layer_2" data-name="Layer 2"><g id="Layer_3" data-name="Layer 3">
<path d="M8.72,38.88.07,47.52A.26.26,0,0,0,.28,48l19.87-2.21Z" fill="#008f92"/>
<circle cx="27.01" cy="25.16" r="25.16" fill="#008f92"/>
<path d="M22.94,28.86c0-6,6.83-6.95,6.83-11.21,0-1.95-1.73-3.44-4-3.44a6.88,6.88,0,0,0-3.31,1,1.59,1.59,0,0,1-2-.4l-1-1.18a1.62,1.62,0,0,1,.38-2.37,11.69,11.69,0,0,1,6.38-1.88c4.68,0,9,2.9,9,7.78,0,6.83-7.2,7.62-7.2,12.09h0a1.62,1.62,0,0,1-1.62,1.61H24.56a1.62,1.62,0,0,1-1.62-1.61Zm1.62,5.59h1.86A1.62,1.62,0,0,1,28,36.06v1.66a1.62,1.62,0,0,1-1.62,1.61H24.56a1.62,1.62,0,0,1-1.62-1.61V36.06A1.62,1.62,0,0,1,24.56,34.45Z" fill="#fff"/></g></g></svg>